<svg width="80" height="118" viewBox="0 0 80 118" fill="none" xmlns="http://www.w3.org/2000/svg">
<path d="M17.9414 91.6697C15.8089 91.6697 14.6338 90.8979 14.6338 89.4943V89.2584C14.6338 87.1241 17.4927 87.08 21.1109 87.0252L21.1889 87.0236V91.3576L21.1289 91.3713C20.2345 91.586 19.3401 91.6682 17.9399 91.6682L17.9414 91.6697ZM12.9185 82.7353C13.8819 82.3228 15.8779 81.7108 17.7388 81.7108C19.22 81.7108 21.1889 81.9513 21.1889 84.0339V84.8178L18.6062 84.9092C14.3021 85.0614 11.9325 86.6065 11.9325 89.2584V89.4943C11.9325 93.0306 15.138 94.2865 17.8814 94.2865C20.2075 94.2865 22.238 94.0353 23.9173 93.5391V84.4479C23.9173 80.8964 21.9063 79.0955 17.9384 79.0955C16.106 79.0955 14.7554 79.2934 12.9065 79.9876L12.9155 82.7369L12.9185 82.7353Z" fill="#FF611F"/>
<path d="M68.2845 100.074C69.8648 100.95 71.5411 101.341 73.7156 101.341C77.7196 101.341 79.9241 99.1046 79.9241 95.0431V79.3893H77.1943V91.3287L77.1343 91.3424C76.2489 91.554 75.5195 91.6681 74.2049 91.6681C71.7047 91.6681 70.6392 90.6208 70.6392 88.1653V79.3893H67.9379V87.9598C67.9379 93.1889 71.2365 94.2865 74.0023 94.2865C75.1788 94.2865 76.3914 94.1495 77.0938 93.9364L77.1928 93.9059V95.0446C77.1928 97.5549 76.0868 98.724 73.7141 98.724C71.8803 98.724 69.7192 98.1958 68.2845 97.4042L68.283 100.074H68.2845Z" fill="#FF611F"/>
<path d="M35.4172 92.548L35.4772 92.615C35.9484 93.1463 37.2856 94.3794 39.5382 94.3794C41.7592 94.3794 44.8867 92.7261 44.8867 89.0513V79.3893H42.235V88.6677C42.235 90.5021 41.1019 91.7823 39.4811 91.7823C38.8418 91.7823 36.7558 91.5281 36.7558 88.2536V79.3893H34.1041V88.2536C34.1041 91.5266 31.9955 91.7823 31.3502 91.7823C29.7715 91.7823 28.6249 90.4716 28.6249 88.6677V79.3893H25.9731V89.0513C25.9731 92.5496 28.7075 94.3794 31.4088 94.3794C33.2667 94.3794 34.7914 93.3259 35.3632 92.6181L35.4202 92.548H35.4172Z" fill="#FF611F"/>
<path d="M56.4018 92.548L56.4618 92.615C56.9331 93.1463 58.2702 94.3794 60.5228 94.3794C62.7439 94.3794 65.8714 92.7261 65.8714 89.0513V79.3893H63.2196V88.6677C63.2196 90.5021 62.0865 91.7823 60.4658 91.7823C59.8264 91.7823 57.7404 91.5281 57.7404 88.2536V79.3893H55.0887V88.2536C55.0887 91.5266 52.9802 91.7823 52.3348 91.7823C50.7561 91.7823 49.6095 90.4716 49.6095 88.6677V79.3893H46.9578V89.0513C46.9578 92.5496 49.6921 94.3794 52.3919 94.3794C54.2498 94.3794 55.7745 93.3259 56.3478 92.6181L56.4048 92.548H56.4018Z" fill="#FF611F"/>
<path d="M0.574987 93.5619C1.79657 94.0764 2.99565 94.317 4.3478 94.317C8.00806 94.317 9.86445 92.1477 9.86445 87.8715V74.9625H1.0237V77.6387H7.01908V87.8715C7.01908 91.0105 5.91906 91.6408 4.1452 91.6408C2.91911 91.6408 1.75005 91.3013 0.573486 90.6041V93.5634L0.574987 93.5619Z" fill="#FF611F"/>
<path d="M44.0808 69.3693C42.4901 69.2432 41.1729 70.5661 41.2986 72.1612C41.3976 73.4164 42.4099 74.4347 43.6611 74.5331C45.2518 74.6593 46.569 73.3364 46.4433 71.7413C46.3442 70.4861 45.3304 69.4678 44.0808 69.3693Z" fill="#FF611F"/>
<path d="M36.6255 69.3693C35.0347 69.2432 33.719 70.5661 33.8432 72.1612C33.9422 73.4164 34.9545 74.4347 36.2058 74.5331C37.7966 74.6593 39.1138 73.3364 38.9881 71.7413C38.889 70.4861 37.8751 69.4693 36.6239 69.3693" fill="#FF611F"/>
<path d="M57.9211 31.0829C57.9211 32.5134 59.0763 33.6732 60.5018 33.6732C61.9273 33.6732 63.0824 32.5134 63.0824 31.0829C63.0824 29.6524 61.9273 28.4927 60.5018 28.4927C59.0763 28.4927 57.9211 29.6524 57.9211 31.0829Z" fill="#FF611F"/>
<path d="M27.4353 5.29391C31.5513 5.29391 34.8981 8.77755 34.8981 13.0598V20.8258H27.4353C23.3193 20.8258 19.9726 17.3421 19.9726 13.0598C19.9726 8.77755 23.3208 5.29391 27.4353 5.29391ZM27.4353 26.0923L34.8936 26.0892C34.8936 30.3715 31.5453 33.8749 27.4308 33.8749V39.1415C34.3373 39.1415 39.9558 33.2953 39.9558 26.109V26.0786L65.0896 26.0558C65.0896 12.3722 54.9893 1.14549 42.124 0V5.37149C50.4594 6.30705 57.2625 12.57 59.3152 20.8242H39.9603V13.0583C39.9603 5.87198 34.3418 0.0258611 27.4353 0.0258611C20.5289 0.0258611 14.9104 5.87198 14.9104 13.0583C14.9104 20.2446 20.5289 26.0908 27.4353 26.0908" fill="#FF611F"/>
<path d="M55.7334 33.8251V28.5903C46.1586 28.5903 38.3967 36.7113 38.3967 46.729H59.2543C56.934 55.577 49.1945 62.0793 40 62.0793C29.057 62.0793 20.1708 52.8679 20.0376 41.4514H14.9104C15.0451 55.8305 26.2247 67.4439 40 67.4439C53.7753 67.4439 64.9564 55.8305 65.0896 41.4514L44.479 41.4422C46.4086 36.9526 50.7215 33.8267 55.7319 33.8267" fill="#FF611F"/>
<path d="M27.6 106.954C27.6 106.298 27.7591 105.824 28.0773 105.533C28.4023 105.241 28.8424 105.096 29.3975 105.096C30.0272 105.096 30.5654 105.262 31.0122 105.593L30.6365 106.477C30.2844 106.186 29.8714 106.04 29.3975 106.04C29.147 106.04 28.9507 106.111 28.8085 106.254C28.6731 106.396 28.6054 106.629 28.6054 106.954V107.259H30.5349V108.214H28.6054V112.337H27.6V106.954ZM31.2595 107.564C31.4829 107.428 31.7605 107.323 32.0923 107.249C32.424 107.168 32.7591 107.127 33.0976 107.127C33.5445 107.127 33.9338 107.205 34.2655 107.36L33.8694 108.274C33.6528 108.146 33.3955 108.082 33.0976 108.082C32.8201 108.082 32.5425 108.136 32.2649 108.244V112.337H31.2595V107.564ZM36.8521 112.428C36.2089 112.428 35.691 112.218 35.2983 111.798C34.9057 111.379 34.7093 110.732 34.7093 109.859V109.696C34.7093 108.823 34.9057 108.176 35.2983 107.757C35.691 107.337 36.2089 107.127 36.8521 107.127C37.4953 107.127 38.0132 107.337 38.4059 107.757C38.7985 108.176 38.9949 108.823 38.9949 109.696V109.859C38.9949 110.732 38.7985 111.379 38.4059 111.798C38.0132 112.218 37.4953 112.428 36.8521 112.428ZM36.8521 111.473C37.2177 111.473 37.4953 111.352 37.6848 111.108C37.8744 110.864 37.9692 110.448 37.9692 109.859V109.696C37.9692 109.107 37.8744 108.691 37.6848 108.447C37.4953 108.203 37.2177 108.082 36.8521 108.082C36.4865 108.082 36.2055 108.207 36.0092 108.457C35.8196 108.701 35.7249 109.114 35.7249 109.696V109.859C35.7249 110.441 35.8196 110.857 36.0092 111.108C36.2055 111.352 36.4865 111.473 36.8521 111.473ZM40.0888 107.564C40.3054 107.435 40.583 107.33 40.9215 107.249C41.26 107.168 41.6188 107.127 41.998 107.127C42.6073 107.127 43.0812 107.306 43.4197 107.665C43.6161 107.509 43.853 107.381 44.1306 107.279C44.4082 107.178 44.6993 107.127 45.004 107.127C45.6471 107.127 46.1583 107.34 46.5374 107.767C46.9165 108.193 47.1061 108.836 47.1061 109.696V112.337H46.0906V109.625C46.0906 109.077 45.989 108.684 45.7859 108.447C45.5896 108.203 45.3086 108.082 44.943 108.082C44.7128 108.082 44.5097 108.115 44.3337 108.183C44.1577 108.244 44.0155 108.325 43.9072 108.427C44.0358 108.772 44.1001 109.175 44.1001 109.635V112.337H43.0948V109.564C43.0948 109.029 42.9932 108.65 42.7901 108.427C42.587 108.197 42.2993 108.082 41.9269 108.082C41.5952 108.082 41.321 108.136 41.1043 108.244V112.337H40.0888V107.564ZM52.1911 112.428C51.4193 112.428 50.749 112.259 50.1803 111.92L50.5053 111.047C50.661 111.142 50.881 111.236 51.1654 111.331C51.4497 111.426 51.7916 111.473 52.1911 111.473C52.5025 111.473 52.7665 111.429 52.9832 111.341C53.1998 111.253 53.3081 111.121 53.3081 110.945C53.3081 110.742 53.2066 110.583 53.0035 110.468C52.8004 110.353 52.516 110.262 52.1504 110.194C51.8052 110.133 51.5005 110.058 51.2365 109.97C50.9792 109.876 50.7558 109.723 50.5662 109.513C50.3834 109.297 50.292 109.006 50.292 108.64C50.292 108.085 50.485 107.696 50.8709 107.472C51.2568 107.242 51.7442 107.127 52.3332 107.127C53.0644 107.127 53.7008 107.296 54.2424 107.635L53.9175 108.508C53.755 108.393 53.5316 108.295 53.2472 108.214C52.9696 108.126 52.665 108.082 52.3332 108.082C52.0353 108.082 51.7882 108.126 51.5919 108.214C51.4023 108.295 51.3075 108.427 51.3075 108.61C51.3075 108.799 51.3888 108.931 51.5513 109.006C51.7205 109.08 51.8864 109.131 52.0489 109.158C52.2114 109.178 52.3129 109.192 52.3535 109.199C53.0441 109.327 53.5451 109.537 53.8565 109.828C54.1747 110.113 54.3338 110.495 54.3338 110.976C54.3338 111.504 54.124 111.88 53.7042 112.103C53.2912 112.32 52.7868 112.428 52.1911 112.428ZM57.2484 112.428C56.6932 112.428 56.2532 112.282 55.9282 111.991C55.6032 111.693 55.4408 111.216 55.4408 110.559V105.736H56.4563V107.259H58.4467V108.214H56.4563V110.57C56.4563 110.895 56.5274 111.125 56.6696 111.26C56.8117 111.396 57.0114 111.463 57.2687 111.463C57.3838 111.463 57.4921 111.453 57.5937 111.433C57.9796 111.379 58.291 111.25 58.528 111.047L58.5991 111.24C58.6735 111.429 58.7582 111.656 58.8529 111.92C58.4197 112.259 57.8848 112.428 57.2484 112.428ZM61.7493 112.428C61.0249 112.428 60.4528 112.221 60.033 111.809C59.6133 111.396 59.4034 110.746 59.4034 109.859V109.696C59.4034 108.809 59.6133 108.159 60.033 107.746C60.4528 107.333 61.0249 107.127 61.7493 107.127C62.4128 107.127 63.0018 107.296 63.5163 107.635C63.4486 107.784 63.4012 107.895 63.3741 107.97C63.3403 108.044 63.303 108.126 63.2624 108.214C63.2286 108.302 63.1846 108.4 63.1304 108.508C62.9408 108.386 62.7276 108.285 62.4906 108.203C62.2537 108.122 62.0065 108.082 61.7493 108.082C61.3295 108.082 61.0012 108.207 60.7642 108.457C60.534 108.708 60.4189 109.121 60.4189 109.696V109.859C60.4189 110.434 60.534 110.847 60.7642 111.098C61.0012 111.348 61.3295 111.473 61.7493 111.473C62.0065 111.473 62.2537 111.433 62.4906 111.352C62.7276 111.27 62.9408 111.169 63.1304 111.047C63.1846 111.155 63.2286 111.253 63.2624 111.341C63.303 111.429 63.3403 111.511 63.3741 111.585C63.4012 111.66 63.4486 111.771 63.5163 111.92C63.0018 112.259 62.4128 112.428 61.7493 112.428Z" fill="#FF611F"/>
<path d="M69.4351 106.071C69.2658 106.071 69.1236 106.013 69.0085 105.898C68.8934 105.783 68.8359 105.641 68.8359 105.472C68.8359 105.302 68.8934 105.16 69.0085 105.045C69.1236 104.93 69.2658 104.872 69.4351 104.872C69.6043 104.872 69.7465 104.93 69.8616 105.045C69.9767 105.16 70.0342 105.302 70.0342 105.472C70.0342 105.641 69.9767 105.783 69.8616 105.898C69.7465 106.013 69.6043 106.071 69.4351 106.071ZM69.364 115.028C68.8697 115.028 68.3891 114.946 67.9219 114.784C67.4277 114.615 67.0249 114.354 66.7134 114.002C66.3817 113.63 66.2158 113.166 66.2158 112.611V110.052L67.2009 109.412V112.509C67.2009 113.031 67.4345 113.427 67.9016 113.697C68.2875 113.928 68.775 114.043 69.364 114.043C69.9801 114.043 70.4844 113.924 70.8771 113.687C71.3239 113.416 71.5474 113.027 71.5474 112.519V107.279H72.5324V111.362H73.1316V112.337H72.5324V112.611C72.5324 113.403 72.1973 114.019 71.5271 114.459C71.2292 114.649 70.894 114.791 70.5217 114.886C70.1493 114.98 69.7634 115.028 69.364 115.028ZM76.0374 113.606C75.5635 113.606 75.1675 113.494 74.8493 113.271C74.5378 113.047 74.3381 112.736 74.2501 112.337H73.0721V111.362H74.2298V108.935C74.2298 108.346 74.4227 107.892 74.8086 107.574C75.1201 107.337 75.5297 107.218 76.0374 107.218C76.5587 107.218 76.9819 107.35 77.3069 107.614C77.6724 107.926 77.8552 108.366 77.8552 108.935V111.9C77.8552 112.496 77.6691 112.943 77.2967 113.24C76.9853 113.484 76.5655 113.606 76.0374 113.606ZM76.0374 112.641C76.2947 112.641 76.4944 112.597 76.6366 112.509C76.8059 112.394 76.8905 112.191 76.8905 111.9V108.924C76.8905 108.64 76.8126 108.44 76.6569 108.325C76.5215 108.23 76.315 108.183 76.0374 108.183C75.7666 108.183 75.5669 108.23 75.4383 108.325C75.2758 108.434 75.1945 108.633 75.1945 108.924V111.9C75.1945 112.184 75.2826 112.387 75.4586 112.509C75.594 112.597 75.7869 112.641 76.0374 112.641Z" fill="#FF611F"/>
</svg>
