<?xml version="1.0" encoding="utf-8"?>
<!-- Generator: Adobe Illustrator 27.2.0, SVG Export Plug-In . SVG Version: 6.00 Build 0)  -->
<svg version="1.1" id="Layer_1" xmlns="http://www.w3.org/2000/svg" xmlns:xlink="http://www.w3.org/1999/xlink" x="0px" y="0px"
	 viewBox="0 0 1000 1000" style="enable-background:new 0 0 1000 1000;" xml:space="preserve">
<style type="text/css">
	.st0{fill:#00AD42;}
	.st1{fill:#FEFEFE;}
	.st2{fill:#FDFEFD;}
	.st3{fill:#01AE43;}
</style>
<path class="st0" d="M363,145.6c7.5-2.7,15.1-4.9,23.1-5.8c21.6-2.6,41.6,2,60,13.6c31,19.6,60.2,41.6,87.6,66
	c8.2,7.4,16.4,14.9,24.2,22.7c48.8,48.8,90.2,103.2,122.9,164.2c19.3,36.2,35.6,73.7,48.1,112.9c9.3,28.9,16.8,58.3,22.3,88.1
	c1.1,6.3,2.3,12.6,3.4,18.9c1.4,2.3,1.2,5,1.6,7.4c2.3,15.8,4.2,31.5,5.4,47.4c0.9,12.3,1.5,24.7,1.9,37c0.3,7.6,0.3,15.2,0.3,22.8
	c-0.1,12.3-0.6,24.7-1.3,37.1c-1,16.2-2.3,32.3-4.4,48.5c-1.1,8.7-2.2,17.3-3.8,25.8c-0.2,1.5-0.4,2.9-0.7,4.3
	c-0.4,1.3-0.3,2.7-1.1,3.9c-0.4,0.6-1.1,0.9-1.9,0.9c-0.4-0.1-0.9-0.3-1.2-0.4c-0.5-0.2-1-0.3-1.5-0.5c-0.7-0.3-1.3-0.6-2-0.9
	c-1.6-0.7-3.2-1-4.6-1.9c-2.6-1.3-5.2-2.3-7.9-3.3c-3.2-1.6-6.6-2.9-10-4.2c-5.8-2.6-11.9-5-17.9-7.5c-12.1-5.1-24.1-10.2-36.2-15.2
	c-21.4-9-42.9-17.8-64.1-27.1c-11.6-5.2-23.5-10.1-35.2-15.1c-10.8-4.6-21.6-9.2-32.5-13.7c-12.3-5.2-24.6-10.4-37-15.6
	c-4.5-1.9-9-3.8-13.4-5.6c-5.1-2.1-10.1-4.5-15.3-6.3c-4.1-1.2-7.9-3.2-11.7-5c-8.5-3.9-17.1-7.4-25.7-10.9
	c-5.2-2.3-10.3-4.5-15.6-6.6c-9.3-3.9-18.6-7.8-27.9-11.7c-7.4-3.2-14.9-6.4-22.5-9.4c-16.5-7.3-33.3-13.8-49.8-21.1
	c-12.2-5.4-23.5-12.3-33.5-21.1c-9-7.9-17.3-16.4-24-26.3c-3.7-5.4-7.1-10.9-9.9-16.7c-1.2-2.6-2.6-5.1-3.9-7.7
	c-2.3-5-3.8-10.4-5.8-15.5c-2.1-5.4-2.8-11-3.8-16.7c-0.3-1.6-0.5-3.2-0.9-4.8c-1.1-7.4-1.1-14.9-1-22.5c0.1-10.6,1.9-20.9,4.2-31.2
	c7.3-32.8,14.5-65.7,21.7-98.7c1.9-8.8,3.9-17.8,6-26.7c0.1-0.5,0.2-1,0.2-1.6c0.1-2.8,1.1-5.5,1.7-8.2c1.6-6.7,3.1-13.4,4.5-20
	c3-13.2,5.8-26.4,8.7-39.6c1.3-5.6,2.5-11.3,3.8-16.9c0.4-1.5,0.7-3.1,1-4.6c0.1-0.9,0.2-1.6,0.4-2.5c0.1-0.3,0.2-0.7,0.3-1
	c0.2-0.7,0.3-1.3,0.4-2c0.4-2.3,1.5-4.5,1.9-7c0.5-2.1,0.9-4.3,1.4-6.4c0.3-1,0.4-1.9,0.6-2.8c0.3-1.1,0.6-2.3,0.8-3.4
	c0-1.3,0.3-2.6,0.7-3.9c0.3-0.9,0.6-1.6,0.8-2.6c0-0.3,0.1-0.6,0.1-1c0-0.4,0.1-0.9,0.2-1.3c0.3-0.8,0.7-1.5,0.8-2.3
	c0-0.2,0.1-0.4,0.2-0.6c0.2-0.5,0.3-1,0.3-1.5c0-0.4,0-0.9,0.1-1.3c0.2-0.6,0.3-1.2,0.3-1.9c0.1-0.7,0.3-1.3,0.6-1.9
	c0.3-0.7,0.3-1.5,0.3-2.2c0-0.3,0.1-0.6,0.2-1c0.3-0.7,0.6-1.3,0.7-2c0-0.3,0-0.6,0.1-1c0-0.4,0.1-0.8,0.2-1.2
	c0.1-0.3,0.3-0.8,0.3-1.1c0.1-0.5,0.3-1,0.3-1.5c0-0.3,0.1-0.6,0.2-0.9c0.1-0.5,0.3-1,0.4-1.5c0.2-0.4,0.3-1,0.4-1.4v-1
	c0-0.4,0-0.9,0.1-1.3c0.3-1,0.8-1.7,0.8-2.7c0-0.3,0.1-0.6,0.2-1c0.1-0.4,0.2-0.8,0.3-1.2c0-0.5,0-1,0.1-1.6
	c0.1-0.4,0.2-0.8,0.3-1.2c0.1-0.4,0.2-0.8,0.3-1.2c0.3-0.8,0.7-1.5,0.7-2.3c0-0.3,0-0.6,0.1-1c0-0.3,0.1-0.6,0.2-1
	c0.3-0.8,0.6-1.6,0.7-2.3c0.1-0.3,0.1-0.6,0.2-0.9c0.1-0.3,0.2-0.8,0.3-1.2c0-0.6,0-1.2,0.2-1.9c0.1-0.3,0.2-0.6,0.3-0.9
	c0.3-0.4,0.3-0.9,0.4-1.4c0-0.3,0.1-0.6,0.2-0.9c0.1-0.5,0.3-1,0.3-1.5c0.1-0.6,0.3-1.2,0.3-1.9c0-0.3,0-0.7,0.1-1
	c0.1-1.3,0.9-2.3,1-3.6c0.3-1.2,0.6-2.5,0.9-3.7c0.1-0.5,0.3-1,0.5-1.6c0.3-1,0.8-2.1,1-3.2c0.3-1,0.7-1.9,1-2.8
	c0.3-0.6,0.4-1.2,0.6-1.9c0.6-1.3,1.1-2.6,1.6-3.9c0.2-1,0.6-1.9,1.1-2.8c1.5-2.8,3.2-5.5,4.6-8.4c1-2,2.8-3.6,3.8-5.7
	c1.1-2.1,2.8-3.9,4.4-5.8c3.6-3.9,7.4-7.4,11.4-10.9c6.6-5.4,13.7-9.9,21.5-13.3C361,146,362,145.6,363,145.6L363,145.6z"/>
<path class="st1" d="M588,521.4c5.6-7.9,12.9-11.2,21.9-10.8c9.1,0.4,16,4.5,19.7,13.7c2.5-4.8,5.8-8.1,10.1-10.5
	c10.3-6,24.7-3.7,31.5,5.2c3.5,4.8,5.4,10.3,5.4,16.2c0.2,15,0.1,30,0.1,45c0,1.5-0.6,1.6-1.9,1.6c-4.8-0.1-9.5-0.1-14.1,0
	c-1.6,0-2.1-0.4-2.1-2.1c0.1-12.5,0-24.8,0-37.3c0-2.5-0.2-4.8-0.9-7.2c-1.3-4.1-4.1-6.4-8.3-6.9c-10.6-1.4-16.9,4.5-17.1,16.1
	c-0.2,11.6-0.1,23.2,0,34.9c0,2-0.4,2.7-2.6,2.6c-4.4-0.2-8.7-0.2-13.2,0c-1.9,0.1-2.3-0.4-2.3-2.3c0.1-12.2,0.1-24.4,0.1-36.5v-1.1
	c0-8.7-3.2-12.9-10.3-13.6c-8.5-0.7-14.2,3.6-15.6,11.9c-0.4,2.6-0.4,5.2-0.4,7.7v21.5c0,7.2-5,12.3-12.2,12.5
	c-3.9,0.1-5.8-1.8-5.8-5.8v-52.8c0-7.8,3.4-11.2,11.1-11.2c2.3,0,5.2-1,6.6,0.4c1.1,1.2,0.3,4.2,0.3,6.4L588,521.4L588,521.4z"/>
<path class="st1" d="M416.4,573c-3.9,5-8.7,8.3-14.6,9.6c-15.5,3.6-30.8-4.9-35.9-20.8c-4.6-14.2-3.1-27.6,6-40.2
	c8.7-12.1,30.6-16.1,42.7-2.6c0.7,0.7,1.4,1.4,2.2,2.3c0-2.6,0.1-5,0-7.5c-0.1-1.5,0.5-1.9,1.9-1.9c2.2,0.1,4.4,0,6.6,0
	c5.4,0.2,9,3.5,9.6,8.7c0.1,0.7,0.1,1.4,0.1,2.1c0,18.8,0,37.7,0.1,56.5c0,1.9-0.4,2.6-2.3,2.3c-1.5-0.2-3,0-4.5,0
	c-7,0-9.6-1.9-11.6-8.8V573z"/>
<path class="st1" d="M539.2,522.1v-8.3c0-1,0.1-1.6,1.3-1.6c2.6,0.1,5.4-0.2,8,0.1c5.1,0.4,8.6,4.1,8.7,9.2
	c0.1,19.6,0,39.3,0.1,58.9c0,1.2-0.3,1.6-1.6,1.6c-1.7-0.1-3.4,0-5.2,0c-7,0-9.5-1.9-11.6-8.6c-0.2,0.1-0.4,0.2-0.5,0.3
	c-11.6,15.2-38.8,13.1-48.3-7.6c-7-15.3-5.8-30.2,4.2-44.1c7.6-10.7,26-15.3,38.5-6.4C535.1,517.1,537.1,519,539.2,522.1
	L539.2,522.1z"/>
<path class="st1" d="M346,533.3h-5.4c-2.3,0-4.4-0.8-5.8-2.5c-2.6-2.9-5.8-4-9.6-4.5c-3.5-0.3-6.9-0.2-10.3,0.9
	c-2.9,0.9-4.4,2.6-4.3,4.9c0.1,2.8,2.3,3.3,4.4,3.9c6.4,1.6,12.8,3.2,19.1,4.8c3.5,0.9,6.9,2.1,10.1,3.7c11.1,5.6,14,19.3,6,29
	c-4.8,5.8-11.5,8.3-18.7,9.3c-9.6,1.4-18.9,0.6-27.7-3.9c-7.4-3.9-12.1-9.7-14.1-17.8c-0.3-1.5-0.3-2.1,1.5-2c3.8,0.1,7.5,0,11.3,0
	c2.6,0,4.8,1,6.2,3.2c2.1,3.1,5,4.6,8.5,5.4c4.4,0.9,8.7,1,13.1,0.2c1-0.2,1.9-0.6,2.9-1c1.9-0.8,2.8-2.2,2.8-4.2s-1.1-3.2-2.8-4
	c-3.3-1.5-6.9-2-10.4-2.9c-6.3-1.5-12.6-3-18.7-5.5c-11.7-5-15.3-16.8-8.5-27.8c3.9-6.1,9.5-9.1,16.1-10.6c9.6-2.2,19-1.9,28.1,2.1
	c7.7,3.4,11.6,9.9,13.7,17.8c0.3,1,0.1,1.6-1.1,1.5c-2.1-0.2-4.2-0.1-6.3-0.1L346,533.3z"/>
<path class="st1" d="M465,525.6v30.9c0,4.9,2.3,7.3,7.4,7.4c7.4,0.1,12.5,5.2,12.5,12.6c0,3.6-1.7,5.4-5.2,5.4h-11.3
	c-12.2-0.2-21.2-9.1-21.3-21.3c-0.1-19.6,0-39.1,0-58.6c0-6.1,3.7-9.8,9.7-10c2.1-0.1,4.2,0.1,6.4-0.1c1.6-0.1,1.9,0.5,1.9,2
	C464.9,504.5,464.9,515,465,525.6L465,525.6z"/>
<path class="st1" d="M510.9,640.3c6.6-6.9,16.8-6.1,20.3,0.3c3.2-3.6,7.3-5.4,12.1-5.1c5.6,0.3,9.4,3.6,10.3,9.1
	c0.3,1.6,0.3,3.2,0.4,4.6c0,6.8,0,13.7,0.1,20.5c0,1.6-0.5,2.2-2.1,2c-1.2-0.1-2.6-0.2-3.8,0c-2,0.3-2.8-0.3-2.7-2.6
	c0.2-5.8,0.1-11.6,0.1-17.4v-1.9c-0.3-4.2-2.1-6.4-5.6-6.6c-3.9-0.2-6.5,2.1-7.1,6.1c-0.2,1.3-0.3,2.6-0.3,3.9
	c0,5.5-0.1,10.9,0,16.5c0,1.6-0.5,2-2,1.9c-1.6-0.1-3.2-0.1-4.8,0c-1.5,0.1-1.9-0.4-1.9-1.9c0.1-6.1,0-12.3,0-18.4
	c0-0.9,0-1.7-0.1-2.6c-0.3-3.3-2.1-5.2-5-5.6c-3.4-0.3-6.2,1.3-7.2,4.4c-0.4,1.3-0.6,2.7-0.6,4.2c0,6,0,11.9,0.1,17.9
	c0,1.5-0.3,2.1-1.9,2c-2.1-0.2-4.8,0.6-6.1-0.4c-1.3-1.1-0.4-3.9-0.4-6.1c-0.1-8.8,0-17.7-0.1-26.7c0-1.7,0.3-2.7,2.3-2.3h0.3
	C508,636.3,509.9,637.6,510.9,640.3L510.9,640.3z"/>
<path class="st1" d="M612.9,667.8c-1.4,3.9-1.4,3.9-5.7,4c-1.9,0.1-2.6-0.3-2.6-2.6c0.1-15,0.1-30,0-45c0-1.7,0.4-2.3,2.2-2.2
	c2,0.3,4.6-0.8,5.8,0.3c1.3,1.2,0.3,3.9,0.4,5.8c0.1,3.8,0,7.5,0,11.6c2.3-1.9,4.3-3.4,6.9-4.1c7.7-1.9,15.3,1.5,18.9,8.7
	c3.3,6.7,3.1,13.3-0.5,19.8C633.6,673,620.7,676.1,612.9,667.8L612.9,667.8z"/>
<path class="st1" d="M702.3,656.9c-3.7,0-7.4,0.1-11,0c-1.7-0.1-2.3,0.3-1.6,2.1c1.4,3.6,3.8,6,7.6,6.6c4,0.6,7.5-0.3,9.8-4
	c0.6-0.9,1-1.2,2-0.8c1,0.4,1.9,0.6,2.9,1c2.1,0.7,2.6,1.9,1.4,3.9c-5.2,8.5-18.9,9.7-26.7,2.3c-7.7-7.4-7.4-21.6,0.8-28.4
	c5.5-4.5,11.9-5.5,18.5-2.8c6.6,2.8,9.2,8.4,9.6,15.1c0.3,4.9,0.2,4.9-4.5,4.9C708.1,656.9,705.2,656.9,702.3,656.9L702.3,656.9z"/>
<path class="st1" d="M579.2,672.8c-10.6-0.1-18.2-8.1-18.1-18.9c0.1-10.6,8.1-18.5,18.5-18.4c10.3,0.1,18.3,8.2,18.3,18.7
	C597.7,664.8,589.6,672.9,579.2,672.8L579.2,672.8z"/>
<path class="st1" d="M665.7,646.9c0-7.5,0.1-15.1,0-22.6c0-1.6,0.3-2.5,2.1-2.2c2.1,0.3,4.8-0.9,6.1,0.4c1,1.1,0.3,3.9,0.3,5.8v40.9
	c0,1.7-0.3,2.6-2.3,2.3c-2-0.3-4.6,0.8-5.8-0.4s-0.3-3.9-0.3-5.8C665.6,659.3,665.7,653.1,665.7,646.9z"/>
<path class="st1" d="M656.9,654c0,5.2-0.1,10.3,0.1,15.5c0.1,1.9-0.6,2.5-2.3,2.3c-1.3-0.1-2.6-0.1-4,0c-1.6,0.2-2.3-0.3-2.3-2.1
	c0.1-10.3,0.1-20.7,0-31c0-1.6,0.3-2.5,2.1-2.3c2.1,0.3,4.8-0.9,6.1,0.4c1,1.1,0.3,3.9,0.3,5.8C656.9,646.5,656.9,650.2,656.9,654
	L656.9,654z"/>
<path class="st2" d="M652.6,621.6c2.8,0,5.2,2.3,5.1,5c0,2.7-2.5,5-5.2,5c-2.7,0-5-2.3-4.9-5.2C647.7,623.6,649.8,621.5,652.6,621.6
	L652.6,621.6z"/>
<path class="st0" d="M381.6,547.7c0-9.5,4.6-16.4,12.2-18.7c10.8-3.2,21.6,3.9,22.8,15.1c0.7,6.6-0.3,12.8-5.4,17.5
	c-5.4,5-11.7,6-18.4,3.5c-6.7-2.5-10.1-7.9-11-14.9C381.6,549.2,381.6,548.2,381.6,547.7L381.6,547.7z"/>
<path class="st0" d="M539.2,547.1c-0.2,9.9-5.2,16.8-13.6,18.7c-10.6,2.5-20.4-4.5-21.5-15.4c-0.6-6.1,0.3-11.9,4.5-16.5
	c5.1-5.6,11.5-6.8,18.5-4.6c7.1,2.3,10.7,7.6,11.9,14.7C539.2,545.1,539.2,546.3,539.2,547.1L539.2,547.1z"/>
<path class="st0" d="M632.7,654.2c-0.1,7.8-6.6,12.9-13.3,10.3c-4.2-1.6-6.7-6.4-6.2-11.6c0.6-5.7,3.5-9,8.4-9.8
	C627.7,642.1,632.7,647.2,632.7,654.2L632.7,654.2z"/>
<path class="st3" d="M698.7,650.4h-7.8c-1,0-1.6-0.1-1.2-1.4c1-3.7,4.8-6.5,9-6.6c4.5-0.1,8.1,2.5,9.1,6.3c0.3,1.2,0.2,1.6-1.2,1.6
	C704,650.2,701.4,650.4,698.7,650.4L698.7,650.4z"/>
<path class="st0" d="M569.5,654.1c0-6.4,4-10.8,9.8-10.8s9.8,4.5,9.9,10.6c0.1,6.2-4.4,11.1-10.1,11
	C573.6,664.9,569.6,660.4,569.5,654.1L569.5,654.1z"/>
</svg>
