<svg width="512" height="512" viewBox="0 0 512 512" fill="none" xmlns="http://www.w3.org/2000/svg">
<rect width="512" height="512" rx="128" fill="url(#paint0_linear_632_9)"/>
<g filter="url(#filter0_i_632_9)">
<path d="M403.943 155.213H386.245L386.245 324.474H403.943L403.943 155.213Z" fill="url(#paint1_linear_632_9)"/>
<path d="M403.98 324.411C386.238 336.683 386.238 336.683 386.238 336.683V324.411H403.98Z" fill="url(#paint2_linear_632_9)"/>
<path d="M403.99 155.26C386.248 142.988 386.248 142.988 386.248 142.988V155.26H403.99Z" fill="url(#paint3_linear_632_9)"/>
<path d="M108.045 155.213H125.743L125.743 324.474H108.045L108.045 155.213Z" fill="url(#paint4_linear_632_9)"/>
<path d="M108.009 324.411C125.75 336.683 125.75 336.683 125.75 336.683V324.411H108.009Z" fill="url(#paint5_linear_632_9)"/>
<path d="M108 155.26C125.741 142.988 125.741 142.988 125.741 142.988V155.26H108Z" fill="url(#paint6_linear_632_9)"/>
<path d="M143.495 136.639H161.193L161.193 343.051H143.495L143.495 136.639Z" fill="url(#paint7_linear_632_9)"/>
<path d="M143.459 342.974C161.2 357.94 161.2 357.94 161.2 357.94V342.974H143.459Z" fill="url(#paint8_linear_632_9)"/>
<path d="M143.45 136.697C161.191 121.731 161.191 121.731 161.191 121.731V136.697H143.45Z" fill="url(#paint9_linear_632_9)"/>
<path d="M368.987 136.617H351.289L351.289 343.029H368.987L368.987 136.617Z" fill="url(#paint10_linear_632_9)"/>
<path d="M369.025 342.952C351.284 357.917 351.284 357.917 351.284 357.917V342.952H369.025Z" fill="url(#paint11_linear_632_9)"/>
<path d="M369.033 136.674C351.292 121.708 351.292 121.708 351.292 121.708V136.674H369.033Z" fill="url(#paint12_linear_632_9)"/>
<path d="M298.239 274.292L293.639 266.463L253.671 290.48L258.271 298.309L298.239 274.292Z" fill="url(#paint13_linear_632_9)"/>
<path d="M299.386 282.91L295.488 275.062L257.646 296.936L261.543 304.784L299.386 282.91Z" fill="url(#paint14_linear_632_9)"/>
<path d="M299.443 190.96H281.744V282.866H299.443V190.96Z" fill="url(#paint15_linear_632_9)"/>
<path d="M299.263 335.194H282.119V377.118H299.263V335.194Z" fill="url(#paint16_linear_632_9)"/>
<path d="M264.617 290.69H247.474V327.612H264.617V290.69Z" fill="url(#paint17_linear_632_9)"/>
<path d="M263.14 313.822L254.407 328.574L290.484 349.93L299.217 335.178L263.14 313.822Z" fill="url(#paint18_linear_632_9)"/>
<path d="M213.1 335.092H230.244V377.016H213.1V335.092Z" fill="url(#paint19_linear_632_9)"/>
<path d="M249.223 313.719L257.956 328.472L221.879 349.828L213.146 335.076L249.223 313.719Z" fill="url(#paint20_linear_632_9)"/>
<path d="M177.807 239.302H195.506L195.506 364.135H177.807L177.807 239.302Z" fill="url(#paint21_linear_632_9)"/>
<path d="M314.821 239.302H332.52L332.52 364.135H314.821L314.821 239.302Z" fill="url(#paint22_linear_632_9)"/>
<path d="M177.802 364.161L186.363 349.127L263.725 393.988L255.164 409.021L177.802 364.161Z" fill="url(#paint23_linear_632_9)"/>
<path d="M332.521 364.161L323.96 349.127L246.599 393.988L255.16 409.021L332.521 364.161Z" fill="url(#paint24_linear_632_9)"/>
<path d="M213.731 274.678L218.331 266.849L258.299 290.866L253.699 298.695L213.731 274.678Z" fill="url(#paint25_linear_632_9)"/>
<path d="M212.584 283.295L216.481 275.447L254.324 297.321L250.427 305.169L212.584 283.295Z" fill="url(#paint26_linear_632_9)"/>
<path d="M212.526 191.345H230.225L230.225 283.252H212.526L212.526 191.345Z" fill="url(#paint27_linear_632_9)"/>
<path d="M177.818 116.997H195.517L195.517 208.904H177.818L177.818 116.997Z" fill="url(#paint28_linear_632_9)"/>
<path d="M230.109 191.067L230.081 209.088L178.228 208.826L178.256 190.805L230.109 191.067Z" fill="url(#paint29_linear_632_9)"/>
<path d="M177.773 117.055C195.515 102.089 195.515 102.089 195.515 102.089V117.055H177.773Z" fill="url(#paint30_linear_632_9)"/>
<path d="M333.922 116.908H316.224V208.814H333.922V116.908Z" fill="url(#paint31_linear_632_9)"/>
<path d="M281.632 190.978L281.66 208.999L333.513 208.737L333.485 190.716L281.632 190.978Z" fill="url(#paint32_linear_632_9)"/>
<path d="M333.968 116.966C316.227 102 316.227 102 316.227 102V116.966H333.968Z" fill="url(#paint33_linear_632_9)"/>
</g>
<defs>
<filter id="filter0_i_632_9" x="108" y="74.7817" width="296.359" height="365.776" filterUnits="userSpaceOnUse" color-interpolation-filters="sRGB">
<feFlood flood-opacity="0" result="BackgroundImageFix"/>
<feBlend mode="normal" in="SourceGraphic" in2="BackgroundImageFix" result="shape"/>
<feColorMatrix in="SourceAlpha" type="matrix" values="0 0 0 0 0 0 0 0 0 0 0 0 0 0 0 0 0 0 127 0" result="hardAlpha"/>
<feOffset dy="3.45178"/>
<feGaussianBlur stdDeviation="1.72589"/>
<feComposite in2="hardAlpha" operator="arithmetic" k2="-1" k3="1"/>
<feColorMatrix type="matrix" values="0 0 0 0 0 0 0 0 0 0 0 0 0 0 0 0 0 0 0.25 0"/>
<feBlend mode="normal" in2="shape" result="effect1_innerShadow_632_9"/>
</filter>
<linearGradient id="paint0_linear_632_9" x1="512" y1="1.58739" x2="3.85655e-05" y2="510.413" gradientUnits="userSpaceOnUse">
<stop stop-color="#6ED7B4"/>
<stop offset="0.5" stop-color="#6DCBCA"/>
<stop offset="1" stop-color="#1FA9FF"/>
</linearGradient>
<linearGradient id="paint1_linear_632_9" x1="395.094" y1="155.213" x2="395.094" y2="324.474" gradientUnits="userSpaceOnUse">
<stop stop-color="#16143A"/>
</linearGradient>
<linearGradient id="paint2_linear_632_9" x1="395.109" y1="324.411" x2="395.109" y2="336.683" gradientUnits="userSpaceOnUse">
<stop stop-color="#16143A"/>
</linearGradient>
<linearGradient id="paint3_linear_632_9" x1="395.119" y1="142.988" x2="395.119" y2="155.26" gradientUnits="userSpaceOnUse">
<stop stop-color="#16143A"/>
</linearGradient>
<linearGradient id="paint4_linear_632_9" x1="116.894" y1="155.213" x2="116.894" y2="324.474" gradientUnits="userSpaceOnUse">
<stop stop-color="#16143A"/>
</linearGradient>
<linearGradient id="paint5_linear_632_9" x1="116.879" y1="324.411" x2="116.879" y2="336.683" gradientUnits="userSpaceOnUse">
<stop stop-color="#16143A"/>
</linearGradient>
<linearGradient id="paint6_linear_632_9" x1="116.87" y1="142.988" x2="116.87" y2="155.26" gradientUnits="userSpaceOnUse">
<stop stop-color="#16143A"/>
</linearGradient>
<linearGradient id="paint7_linear_632_9" x1="152.344" y1="136.639" x2="152.344" y2="343.051" gradientUnits="userSpaceOnUse">
<stop stop-color="#16143A"/>
</linearGradient>
<linearGradient id="paint8_linear_632_9" x1="152.329" y1="342.974" x2="152.329" y2="357.94" gradientUnits="userSpaceOnUse">
<stop stop-color="#16143A"/>
</linearGradient>
<linearGradient id="paint9_linear_632_9" x1="152.321" y1="121.731" x2="152.321" y2="136.697" gradientUnits="userSpaceOnUse">
<stop stop-color="#16143A"/>
</linearGradient>
<linearGradient id="paint10_linear_632_9" x1="360.138" y1="136.617" x2="360.138" y2="343.029" gradientUnits="userSpaceOnUse">
<stop stop-color="#16143A"/>
</linearGradient>
<linearGradient id="paint11_linear_632_9" x1="360.155" y1="342.952" x2="360.155" y2="357.917" gradientUnits="userSpaceOnUse">
<stop stop-color="#16143A"/>
</linearGradient>
<linearGradient id="paint12_linear_632_9" x1="360.162" y1="121.708" x2="360.162" y2="136.674" gradientUnits="userSpaceOnUse">
<stop stop-color="#16143A"/>
</linearGradient>
<linearGradient id="paint13_linear_632_9" x1="295.939" y1="270.378" x2="255.738" y2="293.999" gradientUnits="userSpaceOnUse">
<stop stop-color="#16143A"/>
</linearGradient>
<linearGradient id="paint14_linear_632_9" x1="297.437" y1="278.986" x2="258.367" y2="298.388" gradientUnits="userSpaceOnUse">
<stop stop-color="#16143A"/>
</linearGradient>
<linearGradient id="paint15_linear_632_9" x1="290.593" y1="190.96" x2="290.593" y2="282.866" gradientUnits="userSpaceOnUse">
<stop stop-color="#16143A"/>
</linearGradient>
<linearGradient id="paint16_linear_632_9" x1="290.691" y1="335.194" x2="290.691" y2="377.118" gradientUnits="userSpaceOnUse">
<stop stop-color="#16143A"/>
</linearGradient>
<linearGradient id="paint17_linear_632_9" x1="256.046" y1="290.69" x2="256.046" y2="327.612" gradientUnits="userSpaceOnUse">
<stop stop-color="#16143A"/>
</linearGradient>
<linearGradient id="paint18_linear_632_9" x1="258.774" y1="321.198" x2="294.851" y2="342.554" gradientUnits="userSpaceOnUse">
<stop stop-color="#16143A"/>
</linearGradient>
<linearGradient id="paint19_linear_632_9" x1="221.672" y1="335.092" x2="221.672" y2="377.016" gradientUnits="userSpaceOnUse">
<stop stop-color="#16143A"/>
</linearGradient>
<linearGradient id="paint20_linear_632_9" x1="253.59" y1="321.096" x2="217.513" y2="342.452" gradientUnits="userSpaceOnUse">
<stop stop-color="#16143A"/>
</linearGradient>
<linearGradient id="paint21_linear_632_9" x1="186.657" y1="239.302" x2="186.657" y2="364.135" gradientUnits="userSpaceOnUse">
<stop stop-color="#16143A"/>
</linearGradient>
<linearGradient id="paint22_linear_632_9" x1="323.67" y1="239.302" x2="323.67" y2="364.135" gradientUnits="userSpaceOnUse">
<stop stop-color="#16143A"/>
</linearGradient>
<linearGradient id="paint23_linear_632_9" x1="182.083" y1="356.644" x2="259.791" y2="400.896" gradientUnits="userSpaceOnUse">
<stop stop-color="#16143A"/>
</linearGradient>
<linearGradient id="paint24_linear_632_9" x1="328.24" y1="356.644" x2="250.533" y2="400.896" gradientUnits="userSpaceOnUse">
<stop stop-color="#16143A"/>
</linearGradient>
<linearGradient id="paint25_linear_632_9" x1="216.031" y1="270.764" x2="256.232" y2="294.384" gradientUnits="userSpaceOnUse">
<stop stop-color="#16143A"/>
</linearGradient>
<linearGradient id="paint26_linear_632_9" x1="214.533" y1="279.371" x2="253.603" y2="298.773" gradientUnits="userSpaceOnUse">
<stop stop-color="#16143A"/>
</linearGradient>
<linearGradient id="paint27_linear_632_9" x1="221.375" y1="191.345" x2="221.375" y2="283.252" gradientUnits="userSpaceOnUse">
<stop stop-color="#16143A"/>
</linearGradient>
<linearGradient id="paint28_linear_632_9" x1="186.667" y1="116.997" x2="186.667" y2="208.904" gradientUnits="userSpaceOnUse">
<stop stop-color="#16143A"/>
</linearGradient>
<linearGradient id="paint29_linear_632_9" x1="230.095" y1="200.077" x2="178.242" y2="199.997" gradientUnits="userSpaceOnUse">
<stop stop-color="#16143A"/>
</linearGradient>
<linearGradient id="paint30_linear_632_9" x1="186.644" y1="102.089" x2="186.644" y2="117.055" gradientUnits="userSpaceOnUse">
<stop stop-color="#16143A"/>
</linearGradient>
<linearGradient id="paint31_linear_632_9" x1="325.073" y1="116.908" x2="325.073" y2="208.814" gradientUnits="userSpaceOnUse">
<stop stop-color="#16143A"/>
</linearGradient>
<linearGradient id="paint32_linear_632_9" x1="281.646" y1="199.988" x2="333.499" y2="199.908" gradientUnits="userSpaceOnUse">
<stop stop-color="#16143A"/>
</linearGradient>
<linearGradient id="paint33_linear_632_9" x1="325.097" y1="102" x2="325.097" y2="116.966" gradientUnits="userSpaceOnUse">
<stop stop-color="#16143A"/>
</linearGradient>
</defs>
</svg>
